<svg xmlns="http://www.w3.org/2000/svg" viewBox="0 0 800 600" width="800" height="600">
  <!-- 端午节背景：赛龙舟 -->
  <defs>
    <linearGradient id="water" x1="0%" y1="0%" x2="100%" y2="0%">
      <stop offset="0%" stop-color="#3399cc" stop-opacity="0.8"/>
      <stop offset="50%" stop-color="#66ccff" stop-opacity="0.8"/>
      <stop offset="100%" stop-color="#3399cc" stop-opacity="0.8"/>
      <animate attributeName="x1" values="0%;100%;0%" dur="10s" repeatCount="indefinite" />
      <animate attributeName="x2" values="100%;200%;100%" dur="10s" repeatCount="indefinite" />
    </linearGradient>
    <pattern id="wave" width="200" height="20" patternUnits="userSpaceOnUse">
      <path d="M0,10 Q25,0 50,10 T100,10 T150,10 T200,10" fill="none" stroke="white" stroke-width="2" opacity="0.3">
        <animate attributeName="d" values="M0,10 Q25,0 50,10 T100,10 T150,10 T200,10; M0,10 Q25,20 50,10 T100,10 T150,10 T200,10; M0,10 Q25,0 50,10 T100,10 T150,10 T200,10" dur="5s" repeatCount="indefinite" />
      </path>
    </pattern>
  </defs>
  
  <!-- 背景 -->
  <rect width="800" height="600" fill="#e6f7ff" opacity="0.3"/>
  
  <!-- 水面 -->
  <rect x="0" y="300" width="800" height="300" fill="url(#water)" />
  <rect x="0" y="300" width="800" height="300" fill="url(#wave)" opacity="0.5" />
  
  <!-- 太阳 -->
  <circle cx="700" cy="100" r="50" fill="#ffcc00" opacity="0.8">
    <animate attributeName="opacity" values="0.7;0.9;0.7" dur="5s" repeatCount="indefinite" />
  </circle>
  
  <!-- 龙舟1 -->
  <g transform="translate(200, 350)" opacity="0.9">
    <!-- 龙舟身体 -->
    <path d="M-120,0 Q-100,-20 0,-30 Q100,-20 120,0 Q100,20 0,30 Q-100,20 -120,0 Z" fill="#cc0000" />
    
    <!-- 龙头 -->
    <path d="M120,0 Q140,-10 160,-5 Q170,0 160,5 Q140,10 120,0 Z" fill="#ffcc00" />
    <ellipse cx="155" cy="0" rx="5" ry="3" fill="#111" />
    <path d="M160,0 L170,-10 M160,0 L170,10" stroke="#ffcc00" stroke-width="2" />
    
    <!-- 龙尾 -->
    <path d="M-120,0 Q-140,-10 -160,-5 Q-170,0 -160,5 Q-140,10 -120,0 Z" fill="#ffcc00" />
    
    <!-- 船桨 -->
    <g>
      <path d="M-100,-5 L-100,-25 L-90,-35 L-80,-25 L-80,-5" fill="#996633" />
      <path d="M-60,-5 L-60,-25 L-50,-35 L-40,-25 L-40,-5" fill="#996633" />
      <path d="M-20,-5 L-20,-25 L-10,-35 L0,-25 L0,-5" fill="#996633" />
      <path d="M20,-5 L20,-25 L30,-35 L40,-25 L40,-5" fill="#996633" />
      <path d="M60,-5 L60,-25 L70,-35 L80,-25 L80,-5" fill="#996633" />
      <path d="M100,-5 L100,-25 L110,-35 L120,-25 L120,-5" fill="#996633" />
      
      <animateTransform attributeName="transform" type="rotate" values="0;10;0;-10;0" dur="1s" repeatCount="indefinite" />
    </g>
    
    <!-- 船上的人 -->
    <g>
      <circle cx="-90" cy="-10" r="5" fill="#333" />
      <rect x="-93" y="-5" width="6" height="10" fill="#333" />
      
      <circle cx="-50" cy="-10" r="5" fill="#333" />
      <rect x="-53" y="-5" width="6" height="10" fill="#333" />
      
      <circle cx="-10" cy="-10" r="5" fill="#333" />
      <rect x="-13" y="-5" width="6" height="10" fill="#333" />
      
      <circle cx="30" cy="-10" r="5" fill="#333" />
      <rect x="27" y="-5" width="6" height="10" fill="#333" />
      
      <circle cx="70" cy="-10" r="5" fill="#333" />
      <rect x="67" y="-5" width="6" height="10" fill="#333" />
      
      <circle cx="110" cy="-10" r="5" fill="#333" />
      <rect x="107" y="-5" width="6" height="10" fill="#333" />
    </g>
    
    <!-- 鼓手 -->
    <circle cx="0" cy="10" r="7" fill="#333" />
    <rect x="-4" y="17" width="8" height="12" fill="#333" />
    <circle cx="0" cy="0" r="10" fill="#ffcc00" stroke="#996633" stroke-width="2" />
    <path d="M-5,0 L5,0" stroke="#996633" stroke-width="2" />
    
    <!-- 动画效果 -->
    <animateTransform attributeName="transform" type="translate" values="200,350; 220,355; 200,350" dur="2s" repeatCount="indefinite" additive="sum" />
  </g>
  
  <!-- 龙舟2 -->
  <g transform="translate(500, 380)" opacity="0.9">
    <!-- 龙舟身体 -->
    <path d="M-100,0 Q-80,-20 0,-25 Q80,-20 100,0 Q80,15 0,20 Q-80,15 -100,0 Z" fill="#006600" />
    
    <!-- 龙头 -->
    <path d="M100,0 Q120,-10 140,-5 Q150,0 140,5 Q120,10 100,0 Z" fill="#ffcc00" />
    <ellipse cx="135" cy="0" rx="5" ry="3" fill="#111" />
    <path d="M140,0 L150,-10 M140,0 L150,10" stroke="#ffcc00" stroke-width="2" />
    
    <!-- 龙尾 -->
    <path d="M-100,0 Q-120,-10 -140,-5 Q-150,0 -140,5 Q-120,10 -100,0 Z" fill="#ffcc00" />
    
    <!-- 船桨 -->
    <g>
      <path d="M-80,-5 L-80,-25 L-70,-35 L-60,-25 L-60,-5" fill="#996633" />
      <path d="M-40,-5 L-40,-25 L-30,-35 L-20,-25 L-20,-5" fill="#996633" />
      <path d="M0,-5 L0,-25 L10,-35 L20,-25 L20,-5" fill="#996633" />
      <path d="M40,-5 L40,-25 L50,-35 L60,-25 L60,-5" fill="#996633" />
      <path d="M80,-5 L80,-25 L90,-35 L100,-25 L100,-5" fill="#996633" />
      
      <animateTransform attributeName="transform" type="rotate" values="0;-10;0;10;0" dur="1s" repeatCount="indefinite" />
    </g>
    
    <!-- 船上的人 -->
    <g>
      <circle cx="-70" cy="-10" r="5" fill="#333" />
      <rect x="-73" y="-5" width="6" height="10" fill="#333" />
      
      <circle cx="-30" cy="-10" r="5" fill="#333" />
      <rect x="-33" y="-5" width="6" height="10" fill="#333" />
      
      <circle cx="10" cy="-10" r="5" fill="#333" />
      <rect x="7" y="-5" width="6" height="10" fill="#333" />
      
      <circle cx="50" cy="-10" r="5" fill="#333" />
      <rect x="47" y="-5" width="6" height="10" fill="#333" />
      
      <circle cx="90" cy="-10" r="5" fill="#333" />
      <rect x="87" y="-5" width="6" height="10" fill="#333" />
    </g>
    
    <!-- 鼓手 -->
    <circle cx="0" cy="8" r="7" fill="#333" />
    <rect x="-4" y="15" width="8" height="10" fill="#333" />
    <circle cx="0" cy="0" r="8" fill="#ffcc00" stroke="#996633" stroke-width="2" />
    <path d="M-4,0 L4,0" stroke="#996633" stroke-width="2" />
    
    <!-- 动画效果 -->
    <animateTransform attributeName="transform" type="translate" values="500,380; 480,375; 500,380" dur="2s" repeatCount="indefinite" additive="sum" />
  </g>
  
  <!-- 粽子装饰 -->
  <g transform="translate(100, 150)" opacity="0.7">
    <path d="M0,0 L-15,30 L0,60 L15,30 Z" fill="#006600" />
    <path d="M0,0 L0,60" stroke="#996633" stroke-width="2" />
    <path d="M-15,30 L15,30" stroke="#996633" stroke-width="2" />
  </g>
  
  <g transform="translate(700, 200)" opacity="0.7">
    <path d="M0,0 L-15,30 L0,60 L15,30 Z" fill="#006600" />
    <path d="M0,0 L0,60" stroke="#996633" stroke-width="2" />
    <path d="M-15,30 L15,30" stroke="#996633" stroke-width="2" />
  </g>
  
  <!-- 艾草装饰 -->
  <g transform="translate(50, 100)" opacity="0.6">
    <path d="M0,0 C10,10 20,5 30,15 C20,5 10,15 0,0" fill="#006600" />
    <path d="M0,10 C10,20 20,15 30,25 C20,15 10,25 0,10" fill="#006600" />
    <path d="M0,20 C10,30 20,25 30,35 C20,25 10,35 0,20" fill="#006600" />
  </g>
  
  <g transform="translate(750, 120)" opacity="0.6">
    <path d="M0,0 C10,10 20,5 30,15 C20,5 10,15 0,0" fill="#006600" />
    <path d="M0,10 C10,20 20,15 30,25 C20,15 10,25 0,10" fill="#006600" />
    <path d="M0,20 C10,30 20,25 30,35 C20,25 10,35 0,20" fill="#006600" />
  </g>
</svg>