<svg xmlns="http://www.w3.org/2000/svg" viewBox="0 0 800 600" width="800" height="600">
  <!-- 中秋节背景：赏月和月饼 -->
  <defs>
    <radialGradient id="moonGlow" cx="50%" cy="50%" r="50%" fx="50%" fy="50%">
      <stop offset="0%" stop-color="#fffce6" stop-opacity="1"/>
      <stop offset="70%" stop-color="#fff4b3" stop-opacity="0.7"/>
      <stop offset="100%" stop-color="#fff4b3" stop-opacity="0"/>
    </radialGradient>
    <linearGradient id="skyGradient" x1="0%" y1="0%" x2="0%" y2="100%">
      <stop offset="0%" stop-color="#000033" stop-opacity="1"/>
      <stop offset="100%" stop-color="#003366" stop-opacity="1"/>
    </linearGradient>
    <radialGradient id="starGlow" cx="50%" cy="50%" r="50%" fx="50%" fy="50%">
      <stop offset="0%" stop-color="white" stop-opacity="1"/>
      <stop offset="100%" stop-color="white" stop-opacity="0"/>
    </radialGradient>
  </defs>
  
  <!-- 背景 -->
  <rect width="800" height="600" fill="url(#skyGradient)"/>
  
  <!-- 星星 -->
  <g>
    <circle cx="100" cy="100" r="1.5" fill="white">
      <animate attributeName="opacity" values="0.2;1;0.2" dur="3s" repeatCount="indefinite" begin="0s" />
    </circle>
    <circle cx="200" cy="150" r="1" fill="white">
      <animate attributeName="opacity" values="0.2;1;0.2" dur="4s" repeatCount="indefinite" begin="1s" />
    </circle>
    <circle cx="300" cy="80" r="1.5" fill="white">
      <animate attributeName="opacity" values="0.2;1;0.2" dur="5s" repeatCount="indefinite" begin="2s" />
    </circle>
    <circle cx="400" cy="120" r="1" fill="white">
      <animate attributeName="opacity" values="0.2;1;0.2" dur="3s" repeatCount="indefinite" begin="0.5s" />
    </circle>
    <circle cx="500" cy="90" r="1.5" fill="white">
      <animate attributeName="opacity" values="0.2;1;0.2" dur="4s" repeatCount="indefinite" begin="1.5s" />
    </circle>
    <circle cx="600" cy="130" r="1" fill="white">
      <animate attributeName="opacity" values="0.2;1;0.2" dur="5s" repeatCount="indefinite" begin="2.5s" />
    </circle>
    <circle cx="700" cy="70" r="1.5" fill="white">
      <animate attributeName="opacity" values="0.2;1;0.2" dur="3s" repeatCount="indefinite" begin="0.2s" />
    </circle>
    <circle cx="150" cy="200" r="1" fill="white">
      <animate attributeName="opacity" values="0.2;1;0.2" dur="4s" repeatCount="indefinite" begin="1.2s" />
    </circle>
    <circle cx="250" cy="50" r="1.5" fill="white">
      <animate attributeName="opacity" values="0.2;1;0.2" dur="5s" repeatCount="indefinite" begin="2.2s" />
    </circle>
    <circle cx="350" cy="180" r="1" fill="white">
      <animate attributeName="opacity" values="0.2;1;0.2" dur="3s" repeatCount="indefinite" begin="0.7s" />
    </circle>
    <circle cx="450" cy="60" r="1.5" fill="white">
      <animate attributeName="opacity" values="0.2;1;0.2" dur="4s" repeatCount="indefinite" begin="1.7s" />
    </circle>
    <circle cx="550" cy="170" r="1" fill="white">
      <animate attributeName="opacity" values="0.2;1;0.2" dur="5s" repeatCount="indefinite" begin="2.7s" />
    </circle>
    <circle cx="650" cy="40" r="1.5" fill="white">
      <animate attributeName="opacity" values="0.2;1;0.2" dur="3s" repeatCount="indefinite" begin="0.4s" />
    </circle>
    <circle cx="750" cy="160" r="1" fill="white">
      <animate attributeName="opacity" values="0.2;1;0.2" dur="4s" repeatCount="indefinite" begin="1.4s" />
    </circle>
  </g>
  
  <!-- 月亮 -->
  <g transform="translate(400, 200)">
    <circle cx="0" cy="0" r="100" fill="#fff4b3" />
    <circle cx="0" cy="0" r="150" fill="url(#moonGlow)" opacity="0.5" />
    
    <!-- 月亮上的阴影（月兔、桂树等） -->
    <g opacity="0.2">
      <!-- 月兔 -->
      <ellipse cx="-20" cy="-20" rx="25" ry="15" fill="#333" />
      <circle cx="-30" cy="-30" r="8" fill="#333" />
      <ellipse cx="-40" cy="-15" rx="5" ry="10" fill="#333" />
      <ellipse cx="0" cy="-15" rx="5" ry="10" fill="#333" />
      
      <!-- 桂树 -->
      <path d="M30,0 L30,-40 M20,-10 L40,-10 M15,-20 L45,-20 M20,-30 L40,-30" stroke="#333" stroke-width="3" />
      <circle cx="30" cy="-15" r="5" fill="#333" />
      <circle cx="25" cy="-25" r="5" fill="#333" />
      <circle cx="35" cy="-25" r="5" fill="#333" />
      <circle cx="30" cy="-35" r="5" fill="#333" />
    </g>
    
    <!-- 月亮光晕动画 -->
    <circle cx="0" cy="0" r="120" fill="none" stroke="#fffce6" stroke-width="2" opacity="0.3">
      <animate attributeName="r" values="120;130;120" dur="10s" repeatCount="indefinite" />
      <animate attributeName="opacity" values="0.3;0.1;0.3" dur="10s" repeatCount="indefinite" />
    </circle>
  </g>
  
  <!-- 山峦剪影 -->
  <path d="M0,400 Q100,300 200,350 Q300,250 400,300 Q500,200 600,250 Q700,300 800,350 L800,600 L0,600 Z" fill="#000" opacity="0.7" />
  
  <!-- 赏月的人 -->
  <g transform="translate(600, 450)" opacity="0.8">
    <!-- 人物剪影 -->
    <circle cx="0" cy="-40" r="10" fill="#000" />
    <path d="M0,-30 L0,0 M-15,-15 L15,-15 M-5,0 L-10,30 M5,0 L10,30" stroke="#000" stroke-width="3" />
    
    <!-- 桌子 -->
    <rect x="-30" y="30" width="60" height="5" fill="#663300" />
    <rect x="-25" y="35" width="50" height="10" fill="#996633" />
    <rect x="-20" y="45" width="5" height="20" fill="#996633" />
    <rect x="15" y="45" width="5" height="20" fill="#996633" />
  </g>
  
  <!-- 赏月的人2 -->
  <g transform="translate(650, 460)" opacity="0.8">
    <!-- 人物剪影 -->
    <circle cx="0" cy="-40" r="10" fill="#000" />
    <path d="M0,-30 L0,0 M-15,-15 L15,-15 M-5,0 L-10,30 M5,0 L10,30" stroke="#000" stroke-width="3" />
  </g>
  
  <!-- 月饼 -->
  <g transform="translate(580, 470)" opacity="0.9">
    <circle cx="0" cy="0" r="15" fill="#cc9900" />
    <circle cx="0" cy="0" r="10" fill="#ffcc66" stroke="#cc9900" stroke-width="1" />
    <path d="M-5,-5 L5,5 M-5,5 L5,-5" stroke="#cc9900" stroke-width="1" />
  </g>
  
  <!-- 茶壶和茶杯 -->
  <g transform="translate(620, 470)" opacity="0.9">
    <!-- 茶壶 -->
    <path d="M-10,0 Q-10,-10 0,-10 Q10,-10 10,0 L5,10 L-5,10 Z" fill="#666" />
    <path d="M0,-10 L0,-15 L5,-15 L5,-10" fill="#666" />
    <path d="M10,0 L15,5 L10,10" fill="#666" />
    
    <!-- 茶杯 -->
    <path d="M-20,5 L-15,5 L-13,10 L-22,10 Z" fill="#666" />
  </g>
  
  <!-- 桂花装饰 -->
  <g transform="translate(150, 150)" opacity="0.6">
    <circle cx="0" cy="0" r="3" fill="#ffcc00" />
    <circle cx="5" cy="5" r="3" fill="#ffcc00" />
    <circle cx="-5" cy="5" r="3" fill="#ffcc00" />
    <circle cx="5" cy="-5" r="3" fill="#ffcc00" />
    <circle cx="-5" cy="-5" r="3" fill="#ffcc00" />
  </g>
  
  <g transform="translate(650, 100)" opacity="0.6">
    <circle cx="0" cy="0" r="3" fill="#ffcc00" />
    <circle cx="5" cy="5" r="3" fill="#ffcc00" />
    <circle cx="-5" cy="5" r="3" fill="#ffcc00" />
    <circle cx="5" cy="-5" r="3" fill="#ffcc00" />
    <circle cx="-5" cy="-5" r="3" fill="#ffcc00" />
  </g>
  
  <!-- 云朵 -->
  <g transform="translate(200, 300)" opacity="0.3">
    <ellipse cx="0" cy="0" rx="40" ry="20" fill="#ccccff" />
    <ellipse cx="-30" cy="0" rx="25" ry="15" fill="#ccccff" />
    <ellipse cx="30" cy="0" rx="25" ry="15" fill="#ccccff" />
  </g>
  
  <g transform="translate(500, 350)" opacity="0.3">
    <ellipse cx="0" cy="0" rx="50" ry="25" fill="#ccccff" />
    <ellipse cx="-40" cy="0" rx="30" ry="20" fill="#ccccff" />
    <ellipse cx="40" cy="0" rx="30" ry="20" fill="#ccccff" />
  </g>
</svg>