<svg xmlns="http://www.w3.org/2000/svg" viewBox="0 0 800 600" width="800" height="600">
  <!-- 母亲节背景：母亲和孩子 -->
  <defs>
    <linearGradient id="bgGradient" x1="0%" y1="0%" x2="0%" y2="100%">
      <stop offset="0%" stop-color="#ffe6f2" stop-opacity="1"/>
      <stop offset="100%" stop-color="#ffccdd" stop-opacity="1"/>
    </linearGradient>
    <radialGradient id="heartGlow" cx="50%" cy="50%" r="50%" fx="50%" fy="50%">
      <stop offset="0%" stop-color="#ff99cc" stop-opacity="0.8"/>
      <stop offset="100%" stop-color="#ff99cc" stop-opacity="0"/>
    </radialGradient>
  </defs>
  
  <!-- 背景 -->
  <rect width="800" height="600" fill="url(#bgGradient)"/>
  
  <!-- 装饰：心形 -->
  <g opacity="0.3">
    <path d="M100,100 C100,80 80,60 50,60 C20,60 0,80 0,100 C0,120 20,140 50,150 C80,140 100,120 100,100 Z" fill="#ff6699">
      <animate attributeName="opacity" values="0.3;0.5;0.3" dur="3s" repeatCount="indefinite" />
    </path>
    
    <path d="M700,150 C700,130 680,110 650,110 C620,110 600,130 600,150 C600,170 620,190 650,200 C680,190 700,170 700,150 Z" fill="#ff6699">
      <animate attributeName="opacity" values="0.3;0.5;0.3" dur="4s" repeatCount="indefinite" begin="1s" />
    </path>
    
    <path d="M200,500 C200,480 180,460 150,460 C120,460 100,480 100,500 C100,520 120,540 150,550 C180,540 200,520 200,500 Z" fill="#ff6699">
      <animate attributeName="opacity" values="0.3;0.5;0.3" dur="3.5s" repeatCount="indefinite" begin="0.5s" />
    </path>
    
    <path d="M750,450 C750,430 730,410 700,410 C670,410 650,430 650,450 C650,470 670,490 700,500 C730,490 750,470 750,450 Z" fill="#ff6699">
      <animate attributeName="opacity" values="0.3;0.5;0.3" dur="4.5s" repeatCount="indefinite" begin="1.5s" />
    </path>
  </g>
  
  <!-- 花朵装饰 -->
  <g opacity="0.6">
    <!-- 花朵1 -->
    <g transform="translate(100, 200)">
      <circle cx="0" cy="0" r="15" fill="#ff99cc" />
      <circle cx="0" cy="-20" r="10" fill="#ff99cc" />
      <circle cx="14" cy="-14" r="10" fill="#ff99cc" />
      <circle cx="20" cy="0" r="10" fill="#ff99cc" />
      <circle cx="14" cy="14" r="10" fill="#ff99cc" />
      <circle cx="0" cy="20" r="10" fill="#ff99cc" />
      <circle cx="-14" cy="14" r="10" fill="#ff99cc" />
      <circle cx="-20" cy="0" r="10" fill="#ff99cc" />
      <circle cx="-14" cy="-14" r="10" fill="#ff99cc" />
      <circle cx="0" cy="0" r="8" fill="#ffcc00" />
    </g>
    
    <!-- 花朵2 -->
    <g transform="translate(700, 250)">
      <circle cx="0" cy="0" r="12" fill="#ff99cc" />
      <circle cx="0" cy="-16" r="8" fill="#ff99cc" />
      <circle cx="11" cy="-11" r="8" fill="#ff99cc" />
      <circle cx="16" cy="0" r="8" fill="#ff99cc" />
      <circle cx="11" cy="11" r="8" fill="#ff99cc" />
      <circle cx="0" cy="16" r="8" fill="#ff99cc" />
      <circle cx="-11" cy="11" r="8" fill="#ff99cc" />
      <circle cx="-16" cy="0" r="8" fill="#ff99cc" />
      <circle cx="-11" cy="-11" r="8" fill="#ff99cc" />
      <circle cx="0" cy="0" r="6" fill="#ffcc00" />
    </g>
  </g>
  
  <!-- 中央图案：母亲和孩子 -->
  <g transform="translate(400, 300)">
    <!-- 母亲 -->
    <g>
      <!-- 头部 -->
      <circle cx="-20" cy="-70" r="30" fill="#ffcc99" />
      
      <!-- 头发 -->
      <path d="M-20,-100 Q-50,-90 -50,-70 Q-50,-40 -20,-40 Q10,-40 10,-70 Q10,-90 -20,-100 Z" fill="#663300" />
      
      <!-- 脸部特征 -->
      <circle cx="-30" cy="-75" r="3" fill="#663300" />
      <circle cx="-10" cy="-75" r="3" fill="#663300" />
      <path d="M-25,-60 Q-20,-55 -15,-60" stroke="#663300" stroke-width="2" fill="none" />
      
      <!-- 身体 -->
      <path d="M-20,-40 L-60,40 L0,40 Z" fill="#ff6699" />
      <path d="M-20,-40 L-40,0 L-20,40 L0,0 Z" fill="#ff99cc" />
      
      <!-- 手臂 -->
      <path d="M-50,0 Q-70,20 -60,40" stroke="#ffcc99" stroke-width="15" fill="none" stroke-linecap="round" />
    </g>
    
    <!-- 孩子 -->
    <g>
      <!-- 头部 -->
      <circle cx="30" cy="-40" r="20" fill="#ffcc99" />
      
      <!-- 头发 -->
      <path d="M30,-60 Q10,-55 10,-40 Q10,-20 30,-20 Q50,-20 50,-40 Q50,-55 30,-60 Z" fill="#663300" />
      
      <!-- 脸部特征 -->
      <circle cx="23" cy="-45" r="2" fill="#663300" />
      <circle cx="37" cy="-45" r="2" fill="#663300" />
      <path d="M25,-35 Q30,-30 35,-35" stroke="#663300" stroke-width="1.5" fill="none" />
      
      <!-- 身体 -->
      <path d="M30,-20 L10,40 L50,40 Z" fill="#99ccff" />
      
      <!-- 手臂 -->
      <path d="M20,0 Q0,10 -20,20" stroke="#ffcc99" stroke-width="10" fill="none" stroke-linecap="round" />
    </g>
    
    <!-- 互动：拥抱 -->
    <path d="M-40,20 Q-10,40 20,20" stroke="#ffcc99" stroke-width="10" fill="none" stroke-linecap="round" />
    
    <!-- 爱心 -->
    <g transform="translate(0, -100) scale(0.5)">
      <path d="M0,20 L-40,-20 C-40,-40 -20,-40 0,-20 C20,-40 40,-40 40,-20 L0,20 Z" fill="#ff3366">
        <animate attributeName="opacity" values="0.7;1;0.7" dur="2s" repeatCount="indefinite" />
      </path>
      <circle cx="0" cy="0" r="30" fill="url(#heartGlow)" opacity="0.5">
        <animate attributeName="r" values="30;40;30" dur="2s" repeatCount="indefinite" />
      </circle>
    </g>
    
    <!-- 微小动画 -->
    <animateTransform attributeName="transform" type="translate" values="400,300; 400,295; 400,300" dur="3s" repeatCount="indefinite" additive="sum" />
  </g>
  
  <!-- 装饰：花瓣飘落 -->
  <g>
    <path d="M100,0 Q105,5 100,10 Q95,5 100,0 Z" fill="#ff99cc" opacity="0.7">
      <animateMotion path="M0,0 Q50,200 0,400" dur="10s" repeatCount="indefinite" />
      <animateTransform attributeName="transform" type="rotate" values="0;360" dur="10s" repeatCount="indefinite" additive="sum" />
    </path>
    
    <path d="M300,0 Q305,5 300,10 Q295,5 300,0 Z" fill="#ff99cc" opacity="0.7">
      <animateMotion path="M0,0 Q-50,200 0,400" dur="12s" repeatCount="indefinite" begin="1s" />
      <animateTransform attributeName="transform" type="rotate" values="0;360" dur="12s" repeatCount="indefinite" additive="sum" />
    </path>
    
    <path d="M500,0 Q505,5 500,10 Q495,5 500,0 Z" fill="#ff99cc" opacity="0.7">
      <animateMotion path="M0,0 Q50,200 -50,400" dur="9s" repeatCount="indefinite" begin="2s" />
      <animateTransform attributeName="transform" type="rotate" values="0;360" dur="9s" repeatCount="indefinite" additive="sum" />
    </path>
    
    <path d="M700,0 Q705,5 700,10 Q695,5 700,0 Z" fill="#ff99cc" opacity="0.7">
      <animateMotion path="M0,0 Q-50,200 -100,400" dur="11s" repeatCount="indefinite" begin="3s" />
      <animateTransform attributeName="transform" type="rotate" values="0;360" dur="11s" repeatCount="indefinite" additive="sum" />
    </path>
  </g>
  
  <!-- 底部装饰：草地和花朵 -->
  <g transform="translate(0, 550)">
    <rect x="0" y="0" width="800" height="50" fill="#99cc99" opacity="0.5" />
    
    <g transform="translate(100, -10)">
      <path d="M0,0 Q5,-10 10,0" stroke="#006600" stroke-width="2" fill="none" />
      <circle cx="10" cy="-5" r="5" fill="#ff6699" />
    </g>
    
    <g transform="translate(300, -15)">
      <path d="M0,0 Q5,-15 10,0" stroke="#006600" stroke-width="2" fill="none" />
      <circle cx="10" cy="-7" r="7" fill="#ff6699" />
    </g>
    
    <g transform="translate(500, -10)">
      <path d="M0,0 Q5,-10 10,0" stroke="#006600" stroke-width="2" fill="none" />
      <circle cx="10" cy="-5" r="5" fill="#ff6699" />
    </g>
    
    <g transform="translate(700, -15)">
      <path d="M0,0 Q5,-15 10,0" stroke="#006600" stroke-width="2" fill="none" />
      <circle cx="10" cy="-7" r="7" fill="#ff6699" />
    </g>
  </g>
</svg>