<svg xmlns="http://www.w3.org/2000/svg" viewBox="0 0 800 600" width="800" height="600">
  <!-- 七夕节背景：牛郎织女 -->
  <defs>
    <linearGradient id="skyGradient" x1="0%" y1="0%" x2="0%" y2="100%">
      <stop offset="0%" stop-color="#000033" stop-opacity="1"/>
      <stop offset="100%" stop-color="#330066" stop-opacity="1"/>
    </linearGradient>
    <radialGradient id="starGlow" cx="50%" cy="50%" r="50%" fx="50%" fy="50%">
      <stop offset="0%" stop-color="white" stop-opacity="1"/>
      <stop offset="100%" stop-color="white" stop-opacity="0"/>
    </radialGradient>
    <linearGradient id="milkyWay" x1="0%" y1="0%" x2="100%" y2="0%">
      <stop offset="0%" stop-color="#ccccff" stop-opacity="0"/>
      <stop offset="50%" stop-color="#ccccff" stop-opacity="0.5"/>
      <stop offset="100%" stop-color="#ccccff" stop-opacity="0"/>
    </linearGradient>
  </defs>
  
  <!-- 背景 -->
  <rect width="800" height="600" fill="url(#skyGradient)"/>
  
  <!-- 星星 -->
  <g>
    <circle cx="100" cy="100" r="1.5" fill="white">
      <animate attributeName="opacity" values="0.2;1;0.2" dur="3s" repeatCount="indefinite" begin="0s" />
    </circle>
    <circle cx="200" cy="150" r="1" fill="white">
      <animate attributeName="opacity" values="0.2;1;0.2" dur="4s" repeatCount="indefinite" begin="1s" />
    </circle>
    <circle cx="300" cy="80" r="1.5" fill="white">
      <animate attributeName="opacity" values="0.2;1;0.2" dur="5s" repeatCount="indefinite" begin="2s" />
    </circle>
    <circle cx="400" cy="120" r="1" fill="white">
      <animate attributeName="opacity" values="0.2;1;0.2" dur="3s" repeatCount="indefinite" begin="0.5s" />
    </circle>
    <circle cx="500" cy="90" r="1.5" fill="white">
      <animate attributeName="opacity" values="0.2;1;0.2" dur="4s" repeatCount="indefinite" begin="1.5s" />
    </circle>
    <circle cx="600" cy="130" r="1" fill="white">
      <animate attributeName="opacity" values="0.2;1;0.2" dur="5s" repeatCount="indefinite" begin="2.5s" />
    </circle>
    <circle cx="700" cy="70" r="1.5" fill="white">
      <animate attributeName="opacity" values="0.2;1;0.2" dur="3s" repeatCount="indefinite" begin="0.2s" />
    </circle>
    <circle cx="150" cy="200" r="1" fill="white">
      <animate attributeName="opacity" values="0.2;1;0.2" dur="4s" repeatCount="indefinite" begin="1.2s" />
    </circle>
    <circle cx="250" cy="50" r="1.5" fill="white">
      <animate attributeName="opacity" values="0.2;1;0.2" dur="5s" repeatCount="indefinite" begin="2.2s" />
    </circle>
    <circle cx="350" cy="180" r="1" fill="white">
      <animate attributeName="opacity" values="0.2;1;0.2" dur="3s" repeatCount="indefinite" begin="0.7s" />
    </circle>
    <circle cx="450" cy="60" r="1.5" fill="white">
      <animate attributeName="opacity" values="0.2;1;0.2" dur="4s" repeatCount="indefinite" begin="1.7s" />
    </circle>
    <circle cx="550" cy="170" r="1" fill="white">
      <animate attributeName="opacity" values="0.2;1;0.2" dur="5s" repeatCount="indefinite" begin="2.7s" />
    </circle>
    <circle cx="650" cy="40" r="1.5" fill="white">
      <animate attributeName="opacity" values="0.2;1;0.2" dur="3s" repeatCount="indefinite" begin="0.4s" />
    </circle>
    <circle cx="750" cy="160" r="1" fill="white">
      <animate attributeName="opacity" values="0.2;1;0.2" dur="4s" repeatCount="indefinite" begin="1.4s" />
    </circle>
  </g>
  
  <!-- 银河 -->
  <g transform="rotate(45, 400, 300)">
    <rect x="-100" y="280" width="1000" height="40" fill="url(#milkyWay)" opacity="0.7">
      <animate attributeName="opacity" values="0.5;0.8;0.5" dur="10s" repeatCount="indefinite" />
    </rect>
    
    <!-- 银河中的星星 -->
    <g>
      <circle cx="100" cy="300" r="1" fill="white">
        <animate attributeName="opacity" values="0.5;1;0.5" dur="2s" repeatCount="indefinite" begin="0s" />
      </circle>
      <circle cx="200" cy="300" r="1.5" fill="white">
        <animate attributeName="opacity" values="0.5;1;0.5" dur="3s" repeatCount="indefinite" begin="0.5s" />
      </circle>
      <circle cx="300" cy="300" r="1" fill="white">
        <animate attributeName="opacity" values="0.5;1;0.5" dur="2.5s" repeatCount="indefinite" begin="1s" />
      </circle>
      <circle cx="400" cy="300" r="1.5" fill="white">
        <animate attributeName="opacity" values="0.5;1;0.5" dur="3.5s" repeatCount="indefinite" begin="1.5s" />
      </circle>
      <circle cx="500" cy="300" r="1" fill="white">
        <animate attributeName="opacity" values="0.5;1;0.5" dur="2s" repeatCount="indefinite" begin="2s" />
      </circle>
      <circle cx="600" cy="300" r="1.5" fill="white">
        <animate attributeName="opacity" values="0.5;1;0.5" dur="3s" repeatCount="indefinite" begin="2.5s" />
      </circle>
      <circle cx="700" cy="300" r="1" fill="white">
        <animate attributeName="opacity" values="0.5;1;0.5" dur="2.5s" repeatCount="indefinite" begin="3s" />
      </circle>
    </g>
  </g>
  
  <!-- 喜鹊桥 -->
  <g transform="rotate(45, 400, 300)">
    <path d="M300,280 Q400,260 500,280" stroke="#ccccff" stroke-width="2" fill="none" opacity="0.7" stroke-dasharray="5,5">
      <animate attributeName="opacity" values="0.5;0.9;0.5" dur="5s" repeatCount="indefinite" />
    </path>
    
    <!-- 喜鹊 -->
    <g transform="translate(400, 270)" opacity="0.8">
      <!-- 喜鹊1 -->
      <g transform="translate(-30, -10) scale(0.5)">
        <ellipse cx="0" cy="0" rx="10" ry="5" fill="#333" />
        <path d="M-10,0 L-20,-5 L-25,0 L-20,5 Z" fill="#333" />
        <path d="M10,0 L25,-10 L30,-5 L25,0 L30,5 L25,10 Z" fill="#333" />
        <circle cx="-7" cy="0" r="1" fill="white" />
      </g>
      
      <!-- 喜鹊2 -->
      <g transform="translate(30, 10) scale(0.5)">
        <ellipse cx="0" cy="0" rx="10" ry="5" fill="#333" />
        <path d="M-10,0 L-20,-5 L-25,0 L-20,5 Z" fill="#333" />
        <path d="M10,0 L25,-10 L30,-5 L25,0 L30,5 L25,10 Z" fill="#333" />
        <circle cx="-7" cy="0" r="1" fill="white" />
      </g>
      
      <animateTransform attributeName="transform" type="translate" values="400,270; 400,265; 400,270" dur="2s" repeatCount="indefinite" additive="sum" />
    </g>
  </g>
  
  <!-- 牛郎 -->
  <g transform="translate(250, 400)" opacity="0.9">
    <!-- 人物剪影 -->
    <circle cx="0" cy="-40" r="10" fill="#000" />
    <path d="M0,-30 L0,0 M-15,-15 L15,-15 M-5,0 L-10,30 M5,0 L10,30" stroke="#000" stroke-width="3" />
    
    <!-- 牛 -->
    <g transform="translate(-30, 10)">
      <ellipse cx="0" cy="0" rx="15" ry="10" fill="#333" />
      <path d="M-15,0 L-20,-10 M15,0 L20,-10" stroke="#333" stroke-width="3" />
      <path d="M-15,-5 L-25,-5 M15,-5 L25,-5" stroke="#333" stroke-width="2" />
      <ellipse cx="-5" cy="-3" rx="2" ry="2" fill="white" />
      <path d="M-15,0 L-20,15 M-5,10 L-10,25 M5,10 L10,25 M15,0 L20,15" stroke="#333" stroke-width="2" />
    </g>
  </g>
  
  <!-- 织女 -->
  <g transform="translate(550, 400)" opacity="0.9">
    <!-- 人物剪影 -->
    <circle cx="0" cy="-40" r="10" fill="#000" />
    <path d="M0,-30 L0,10 M-15,-15 L15,-15" stroke="#000" stroke-width="3" />
    <path d="M0,10 L-20,30 M0,10 L20,30" stroke="#000" stroke-width="3" />
    
    <!-- 织布机 -->
    <g transform="translate(30, 0)">
      <rect x="-20" y="-10" width="40" height="30" fill="none" stroke="#333" stroke-width="2" />
      <path d="M-20,-10 L20,20 M20,-10 L-20,20" stroke="#333" stroke-width="1" />
      <path d="M-20,5 L20,5" stroke="#333" stroke-width="1" />
      <rect x="-25" y="20" width="50" height="5" fill="#333" />
    </g>
  </g>
  
  <!-- 装饰：流星 -->
  <g>
    <path d="M100,50 L120,70" stroke="white" stroke-width="1" opacity="0">
      <animate attributeName="opacity" values="0;1;0" dur="1s" begin="2s" repeatCount="1" />
    </path>
    <circle cx="100" cy="50" r="1" fill="white" opacity="0">
      <animate attributeName="opacity" values="0;1;0" dur="1s" begin="2s" repeatCount="1" />
    </circle>
    
    <path d="M700,150 L680,170" stroke="white" stroke-width="1" opacity="0">
      <animate attributeName="opacity" values="0;1;0" dur="1s" begin="5s" repeatCount="1" />
    </path>
    <circle cx="700" cy="150" r="1" fill="white" opacity="0">
      <animate attributeName="opacity" values="0;1;0" dur="1s" begin="5s" repeatCount="1" />
    </circle>
    
    <path d="M300,200 L320,220" stroke="white" stroke-width="1" opacity="0">
      <animate attributeName="opacity" values="0;1;0" dur="1s" begin="8s" repeatCount="1" />
    </path>
    <circle cx="300" cy="200" r="1" fill="white" opacity="0">
      <animate attributeName="opacity" values="0;1;0" dur="1s" begin="8s" repeatCount="1" />
    </circle>
  </g>
  
  <!-- 装饰：彩带 -->
  <g opacity="0.5">
    <path d="M100,500 Q150,450 200,500 Q250,550 300,500" stroke="#ff66cc" stroke-width="2" fill="none">
      <animate attributeName="d" values="M100,500 Q150,450 200,500 Q250,550 300,500; M100,500 Q150,550 200,500 Q250,450 300,500; M100,500 Q150,450 200,500 Q250,550 300,500" dur="5s" repeatCount="indefinite" />
    </path>
    
    <path d="M500,500 Q550,450 600,500 Q650,550 700,500" stroke="#66ccff" stroke-width="2" fill="none">
      <animate attributeName="d" values="M500,500 Q550,450 600,500 Q650,550 700,500; M500,500 Q550,550 600,500 Q650,450 700,500; M500,500 Q550,450 600,500 Q650,550 700,500" dur="5s" repeatCount="indefinite" begin="0.5s" />
    </path>
  </g>
  
  <!-- 装饰：花朵 -->
  <g transform="translate(150, 150)" opacity="0.6">
    <circle cx="0" cy="0" r="5" fill="#ff66cc" />
    <circle cx="5" cy="5" r="3" fill="#ff66cc" />
    <circle cx="-5" cy="5" r="3" fill="#ff66cc" />
    <circle cx="5" cy="-5" r="3" fill="#ff66cc" />
    <circle cx="-5" cy="-5" r="3" fill="#ff66cc" />
  </g>
  
  <g transform="translate(650, 200)" opacity="0.6">
    <circle cx="0" cy="0" r="5" fill="#66ccff" />
    <circle cx="5" cy="5" r="3" fill="#66ccff" />
    <circle cx="-5" cy="5" r="3" fill="#66ccff" />
    <circle cx="5" cy="-5" r="3" fill="#66ccff" />
    <circle cx="-5" cy="-5" r="3" fill="#66ccff" />
  </g>
</svg>